<svg xmlns="http://www.w3.org/2000/svg" width="400" height="400" fill="none"><path fill="#fff" d="M200 344.533c-58.667 0-84.8-7.466-86.933-24.533-1.067-7.467-1.067-19.2-.534-32v-18.133c0-19.2 22.4-57.067 54.4-61.867l3.2-.533 1.067 1.6c2.133 0 8.533 2.133 28.8 3.2 20.8-1.067 26.667-2.667 28.8-3.2l1.067-1.6h3.2c32 5.333 53.866 43.2 53.866 62.4L288 288v32c-2.667 17.067-28.8 24.533-87.467 24.533H200Z"/><path fill="#223948" d="M232 213.333c28.8 4.267 49.6 38.934 49.6 56.534 0 17.066 1.6 38.933 0 49.066-1.6 11.2-18.667 20.267-81.6 20.267-62.933 0-80-9.067-82.133-20.267-1.067-10.666 0-32 0-49.066 0-17.6 21.333-52.267 50.133-57.067 0 0 2.133 3.2 32 4.8 29.333-1.067 32-4.8 32-4.8v.533ZM172.8 201.6l-6.4 1.067c-33.6 5.333-58.667 44.266-58.667 67.2L106.667 288v32.533c3.2 21.334 30.4 29.334 92.8 29.334s89.6-8.534 92.266-29.334c1.067-7.466 1.067-19.733.534-32v-18.666c0-22.934-25.6-62.4-58.667-67.2l-6.4-1.067-2.133 2.667a140.805 140.805 0 0 1-51.2 0l-2.134-2.667h1.067Z"/><path fill="#fff" d="M199.467 218.667c-3.734 0-12.8 0-16-1.067-16.534-3.2-54.4-18.133-54.4-85.333 0-49.6 24.533-76.8 69.866-76.8 45.867 0 72 27.733 72 76.266 0 63.467-30.4 81.6-56.533 85.867l-14.933.533v.534Z"/><path fill="#223948" d="M198.933 60.8c50.134 0 66.667 33.067 66.667 70.933 0 53.334-22.4 75.734-52.267 80.534a122.694 122.694 0 0 1-29.333 0c-25.6-5.334-49.6-27.734-49.6-80 0-38.4 14.933-71.467 64.533-71.467Zm0-10.667c-48.533 0-75.2 28.8-75.2 81.6 0 71.467 40.534 87.467 58.667 90.667 3.733 1.067 10.667 1.067 17.067 1.067l16-.534c27.733-4.8 60.8-24 60.8-90.666 0-52.267-28.267-82.134-77.334-82.134Z"/></svg>